<mxfile host="app.diagrams.net" modified="2023-09-20T08:41:52.430Z" agent="Mozilla/5.0 (Windows NT 10.0; Win64; x64) AppleWebKit/537.36 (KHTML, like Gecko) Chrome/116.0.0.0 Safari/537.36" etag="O1NsenT5c-k1QGXBhO-7" version="21.7.5" type="github">
  <diagram id="C5RBs43oDa-KdzZeNtuy" name="Page-1">
    <mxGraphModel dx="1396" dy="793" grid="1" gridSize="10" guides="1" tooltips="1" connect="1" arrows="1" fold="1" page="1" pageScale="1" pageWidth="827" pageHeight="1169" math="0" shadow="0">
      <root>
        <mxCell id="WIyWlLk6GJQsqaUBKTNV-0" />
        <mxCell id="WIyWlLk6GJQsqaUBKTNV-1" parent="WIyWlLk6GJQsqaUBKTNV-0" />
        <mxCell id="DJObfJVSwyNWbDrOo4KB-5" value="" style="edgeStyle=orthogonalEdgeStyle;rounded=0;orthogonalLoop=1;jettySize=auto;html=1;" edge="1" parent="WIyWlLk6GJQsqaUBKTNV-1" source="DJObfJVSwyNWbDrOo4KB-3" target="DJObfJVSwyNWbDrOo4KB-4">
          <mxGeometry relative="1" as="geometry" />
        </mxCell>
        <mxCell id="DJObfJVSwyNWbDrOo4KB-3" value="Voy al gimnasio" style="rounded=1;whiteSpace=wrap;html=1;" vertex="1" parent="WIyWlLk6GJQsqaUBKTNV-1">
          <mxGeometry x="300" y="90" width="120" height="60" as="geometry" />
        </mxCell>
        <mxCell id="DJObfJVSwyNWbDrOo4KB-22" value="" style="edgeStyle=orthogonalEdgeStyle;rounded=0;orthogonalLoop=1;jettySize=auto;html=1;" edge="1" parent="WIyWlLk6GJQsqaUBKTNV-1" source="DJObfJVSwyNWbDrOo4KB-4" target="DJObfJVSwyNWbDrOo4KB-21">
          <mxGeometry relative="1" as="geometry" />
        </mxCell>
        <mxCell id="DJObfJVSwyNWbDrOo4KB-52" style="edgeStyle=orthogonalEdgeStyle;rounded=0;orthogonalLoop=1;jettySize=auto;html=1;entryX=0.5;entryY=0;entryDx=0;entryDy=0;" edge="1" parent="WIyWlLk6GJQsqaUBKTNV-1" source="DJObfJVSwyNWbDrOo4KB-4" target="DJObfJVSwyNWbDrOo4KB-8">
          <mxGeometry relative="1" as="geometry" />
        </mxCell>
        <mxCell id="DJObfJVSwyNWbDrOo4KB-4" value="¿Voy en coche?" style="rhombus;whiteSpace=wrap;html=1;rounded=1;" vertex="1" parent="WIyWlLk6GJQsqaUBKTNV-1">
          <mxGeometry x="320" y="190" width="80" height="80" as="geometry" />
        </mxCell>
        <mxCell id="DJObfJVSwyNWbDrOo4KB-16" value="" style="edgeStyle=orthogonalEdgeStyle;rounded=0;orthogonalLoop=1;jettySize=auto;html=1;" edge="1" parent="WIyWlLk6GJQsqaUBKTNV-1" source="DJObfJVSwyNWbDrOo4KB-8" target="DJObfJVSwyNWbDrOo4KB-15">
          <mxGeometry relative="1" as="geometry" />
        </mxCell>
        <mxCell id="DJObfJVSwyNWbDrOo4KB-8" value="Cojo las llaves del coche" style="whiteSpace=wrap;html=1;rounded=1;" vertex="1" parent="WIyWlLk6GJQsqaUBKTNV-1">
          <mxGeometry x="140" y="300" width="120" height="60" as="geometry" />
        </mxCell>
        <mxCell id="DJObfJVSwyNWbDrOo4KB-13" value="Si" style="text;html=1;strokeColor=none;fillColor=none;align=center;verticalAlign=middle;whiteSpace=wrap;rounded=0;" vertex="1" parent="WIyWlLk6GJQsqaUBKTNV-1">
          <mxGeometry x="260" y="200" width="60" height="30" as="geometry" />
        </mxCell>
        <mxCell id="DJObfJVSwyNWbDrOo4KB-18" value="" style="edgeStyle=orthogonalEdgeStyle;rounded=0;orthogonalLoop=1;jettySize=auto;html=1;" edge="1" parent="WIyWlLk6GJQsqaUBKTNV-1" source="DJObfJVSwyNWbDrOo4KB-15" target="DJObfJVSwyNWbDrOo4KB-17">
          <mxGeometry relative="1" as="geometry" />
        </mxCell>
        <mxCell id="DJObfJVSwyNWbDrOo4KB-54" value="" style="edgeStyle=orthogonalEdgeStyle;rounded=0;orthogonalLoop=1;jettySize=auto;html=1;" edge="1" parent="WIyWlLk6GJQsqaUBKTNV-1" source="DJObfJVSwyNWbDrOo4KB-15" target="DJObfJVSwyNWbDrOo4KB-53">
          <mxGeometry relative="1" as="geometry" />
        </mxCell>
        <mxCell id="DJObfJVSwyNWbDrOo4KB-15" value="¿Tengo suficiente gasofa?" style="rhombus;whiteSpace=wrap;html=1;rounded=1;" vertex="1" parent="WIyWlLk6GJQsqaUBKTNV-1">
          <mxGeometry x="160" y="420" width="80" height="80" as="geometry" />
        </mxCell>
        <mxCell id="DJObfJVSwyNWbDrOo4KB-57" style="edgeStyle=orthogonalEdgeStyle;rounded=0;orthogonalLoop=1;jettySize=auto;html=1;entryX=0;entryY=0.5;entryDx=0;entryDy=0;" edge="1" parent="WIyWlLk6GJQsqaUBKTNV-1" source="DJObfJVSwyNWbDrOo4KB-17" target="DJObfJVSwyNWbDrOo4KB-29">
          <mxGeometry relative="1" as="geometry">
            <Array as="points">
              <mxPoint x="80" y="640" />
            </Array>
          </mxGeometry>
        </mxCell>
        <mxCell id="DJObfJVSwyNWbDrOo4KB-17" value="Conduzco hacia el gimnasio" style="whiteSpace=wrap;html=1;rounded=1;" vertex="1" parent="WIyWlLk6GJQsqaUBKTNV-1">
          <mxGeometry x="20" y="510" width="120" height="60" as="geometry" />
        </mxCell>
        <mxCell id="DJObfJVSwyNWbDrOo4KB-31" style="edgeStyle=orthogonalEdgeStyle;rounded=0;orthogonalLoop=1;jettySize=auto;html=1;entryX=0.5;entryY=0;entryDx=0;entryDy=0;" edge="1" parent="WIyWlLk6GJQsqaUBKTNV-1" source="DJObfJVSwyNWbDrOo4KB-21" target="DJObfJVSwyNWbDrOo4KB-29">
          <mxGeometry relative="1" as="geometry" />
        </mxCell>
        <mxCell id="DJObfJVSwyNWbDrOo4KB-21" value="Voy andando" style="whiteSpace=wrap;html=1;rounded=1;" vertex="1" parent="WIyWlLk6GJQsqaUBKTNV-1">
          <mxGeometry x="440" y="300" width="120" height="60" as="geometry" />
        </mxCell>
        <mxCell id="DJObfJVSwyNWbDrOo4KB-24" value="No" style="text;html=1;strokeColor=none;fillColor=none;align=center;verticalAlign=middle;whiteSpace=wrap;rounded=0;" vertex="1" parent="WIyWlLk6GJQsqaUBKTNV-1">
          <mxGeometry x="400" y="200" width="60" height="30" as="geometry" />
        </mxCell>
        <mxCell id="DJObfJVSwyNWbDrOo4KB-25" value="Si" style="text;html=1;strokeColor=none;fillColor=none;align=center;verticalAlign=middle;whiteSpace=wrap;rounded=0;" vertex="1" parent="WIyWlLk6GJQsqaUBKTNV-1">
          <mxGeometry x="100" y="430" width="60" height="30" as="geometry" />
        </mxCell>
        <mxCell id="DJObfJVSwyNWbDrOo4KB-58" style="edgeStyle=orthogonalEdgeStyle;rounded=0;orthogonalLoop=1;jettySize=auto;html=1;entryX=0.5;entryY=0;entryDx=0;entryDy=0;" edge="1" parent="WIyWlLk6GJQsqaUBKTNV-1" source="DJObfJVSwyNWbDrOo4KB-29" target="DJObfJVSwyNWbDrOo4KB-39">
          <mxGeometry relative="1" as="geometry" />
        </mxCell>
        <mxCell id="DJObfJVSwyNWbDrOo4KB-29" value="Llego al gimnasio y dejo mis cosas" style="whiteSpace=wrap;html=1;rounded=1;" vertex="1" parent="WIyWlLk6GJQsqaUBKTNV-1">
          <mxGeometry x="440" y="610" width="120" height="60" as="geometry" />
        </mxCell>
        <mxCell id="DJObfJVSwyNWbDrOo4KB-44" value="" style="edgeStyle=orthogonalEdgeStyle;rounded=0;orthogonalLoop=1;jettySize=auto;html=1;" edge="1" parent="WIyWlLk6GJQsqaUBKTNV-1" source="DJObfJVSwyNWbDrOo4KB-39" target="DJObfJVSwyNWbDrOo4KB-43">
          <mxGeometry relative="1" as="geometry" />
        </mxCell>
        <mxCell id="DJObfJVSwyNWbDrOo4KB-64" value="" style="edgeStyle=orthogonalEdgeStyle;rounded=0;orthogonalLoop=1;jettySize=auto;html=1;" edge="1" parent="WIyWlLk6GJQsqaUBKTNV-1" source="DJObfJVSwyNWbDrOo4KB-39" target="DJObfJVSwyNWbDrOo4KB-63">
          <mxGeometry relative="1" as="geometry">
            <Array as="points">
              <mxPoint x="360" y="750" />
            </Array>
          </mxGeometry>
        </mxCell>
        <mxCell id="DJObfJVSwyNWbDrOo4KB-39" value="¿Me apetece entrenar pierna?" style="rhombus;whiteSpace=wrap;html=1;rounded=1;" vertex="1" parent="WIyWlLk6GJQsqaUBKTNV-1">
          <mxGeometry x="440" y="710" width="120" height="80" as="geometry" />
        </mxCell>
        <mxCell id="DJObfJVSwyNWbDrOo4KB-48" style="edgeStyle=orthogonalEdgeStyle;rounded=0;orthogonalLoop=1;jettySize=auto;html=1;entryX=1;entryY=0.5;entryDx=0;entryDy=0;" edge="1" parent="WIyWlLk6GJQsqaUBKTNV-1" source="DJObfJVSwyNWbDrOo4KB-43" target="DJObfJVSwyNWbDrOo4KB-47">
          <mxGeometry relative="1" as="geometry">
            <Array as="points">
              <mxPoint x="650" y="950" />
            </Array>
          </mxGeometry>
        </mxCell>
        <mxCell id="DJObfJVSwyNWbDrOo4KB-43" value="Entreno pecho" style="whiteSpace=wrap;html=1;rounded=1;" vertex="1" parent="WIyWlLk6GJQsqaUBKTNV-1">
          <mxGeometry x="580" y="820" width="120" height="60" as="geometry" />
        </mxCell>
        <mxCell id="DJObfJVSwyNWbDrOo4KB-46" value="No" style="text;html=1;strokeColor=none;fillColor=none;align=center;verticalAlign=middle;whiteSpace=wrap;rounded=0;" vertex="1" parent="WIyWlLk6GJQsqaUBKTNV-1">
          <mxGeometry x="570" y="720" width="60" height="30" as="geometry" />
        </mxCell>
        <mxCell id="DJObfJVSwyNWbDrOo4KB-51" value="" style="edgeStyle=orthogonalEdgeStyle;rounded=0;orthogonalLoop=1;jettySize=auto;html=1;" edge="1" parent="WIyWlLk6GJQsqaUBKTNV-1" source="DJObfJVSwyNWbDrOo4KB-47" target="DJObfJVSwyNWbDrOo4KB-50">
          <mxGeometry relative="1" as="geometry" />
        </mxCell>
        <mxCell id="DJObfJVSwyNWbDrOo4KB-47" value="Termino de entrenar y me voy a casa" style="whiteSpace=wrap;html=1;rounded=1;" vertex="1" parent="WIyWlLk6GJQsqaUBKTNV-1">
          <mxGeometry x="440" y="920" width="120" height="60" as="geometry" />
        </mxCell>
        <mxCell id="DJObfJVSwyNWbDrOo4KB-50" value="FIN" style="ellipse;whiteSpace=wrap;html=1;rounded=1;" vertex="1" parent="WIyWlLk6GJQsqaUBKTNV-1">
          <mxGeometry x="460" y="1050" width="80" height="80" as="geometry" />
        </mxCell>
        <mxCell id="DJObfJVSwyNWbDrOo4KB-56" style="edgeStyle=orthogonalEdgeStyle;rounded=0;orthogonalLoop=1;jettySize=auto;html=1;entryX=1;entryY=0.5;entryDx=0;entryDy=0;" edge="1" parent="WIyWlLk6GJQsqaUBKTNV-1" source="DJObfJVSwyNWbDrOo4KB-53" target="DJObfJVSwyNWbDrOo4KB-17">
          <mxGeometry relative="1" as="geometry" />
        </mxCell>
        <mxCell id="DJObfJVSwyNWbDrOo4KB-53" value="Voy a echar gasolina" style="whiteSpace=wrap;html=1;rounded=1;" vertex="1" parent="WIyWlLk6GJQsqaUBKTNV-1">
          <mxGeometry x="270" y="510" width="120" height="60" as="geometry" />
        </mxCell>
        <mxCell id="DJObfJVSwyNWbDrOo4KB-55" value="No" style="text;html=1;strokeColor=none;fillColor=none;align=center;verticalAlign=middle;whiteSpace=wrap;rounded=0;" vertex="1" parent="WIyWlLk6GJQsqaUBKTNV-1">
          <mxGeometry x="240" y="430" width="60" height="30" as="geometry" />
        </mxCell>
        <mxCell id="DJObfJVSwyNWbDrOo4KB-65" style="edgeStyle=orthogonalEdgeStyle;rounded=0;orthogonalLoop=1;jettySize=auto;html=1;entryX=0;entryY=0.5;entryDx=0;entryDy=0;" edge="1" parent="WIyWlLk6GJQsqaUBKTNV-1" source="DJObfJVSwyNWbDrOo4KB-63" target="DJObfJVSwyNWbDrOo4KB-43">
          <mxGeometry relative="1" as="geometry" />
        </mxCell>
        <mxCell id="DJObfJVSwyNWbDrOo4KB-68" value="" style="edgeStyle=orthogonalEdgeStyle;rounded=0;orthogonalLoop=1;jettySize=auto;html=1;" edge="1" parent="WIyWlLk6GJQsqaUBKTNV-1" source="DJObfJVSwyNWbDrOo4KB-63" target="DJObfJVSwyNWbDrOo4KB-67">
          <mxGeometry relative="1" as="geometry" />
        </mxCell>
        <mxCell id="DJObfJVSwyNWbDrOo4KB-63" value="¿De verdad?" style="rhombus;whiteSpace=wrap;html=1;rounded=1;" vertex="1" parent="WIyWlLk6GJQsqaUBKTNV-1">
          <mxGeometry x="320" y="810" width="80" height="80" as="geometry" />
        </mxCell>
        <mxCell id="DJObfJVSwyNWbDrOo4KB-66" value="No" style="text;html=1;strokeColor=none;fillColor=none;align=center;verticalAlign=middle;whiteSpace=wrap;rounded=0;" vertex="1" parent="WIyWlLk6GJQsqaUBKTNV-1">
          <mxGeometry x="390" y="820" width="60" height="30" as="geometry" />
        </mxCell>
        <mxCell id="DJObfJVSwyNWbDrOo4KB-71" style="edgeStyle=orthogonalEdgeStyle;rounded=0;orthogonalLoop=1;jettySize=auto;html=1;entryX=0;entryY=0.5;entryDx=0;entryDy=0;" edge="1" parent="WIyWlLk6GJQsqaUBKTNV-1" source="DJObfJVSwyNWbDrOo4KB-67" target="DJObfJVSwyNWbDrOo4KB-47">
          <mxGeometry relative="1" as="geometry" />
        </mxCell>
        <mxCell id="DJObfJVSwyNWbDrOo4KB-67" value="Entreno pierna" style="whiteSpace=wrap;html=1;rounded=1;" vertex="1" parent="WIyWlLk6GJQsqaUBKTNV-1">
          <mxGeometry x="190" y="920" width="120" height="60" as="geometry" />
        </mxCell>
        <mxCell id="DJObfJVSwyNWbDrOo4KB-69" value="Si" style="text;html=1;strokeColor=none;fillColor=none;align=center;verticalAlign=middle;whiteSpace=wrap;rounded=0;" vertex="1" parent="WIyWlLk6GJQsqaUBKTNV-1">
          <mxGeometry x="260" y="820" width="60" height="30" as="geometry" />
        </mxCell>
      </root>
    </mxGraphModel>
  </diagram>
</mxfile>
